# xmcd CD database file generated by Grip 3.2.0
# 
# Track frame offsets:
#       150
#       16560
#       34257
#       59367
#       71217
#       89507
#       102835
#       122577
#       138160
#       151497
#       164695
# 
# Disc length: 2510 seconds
# 
# Revision: 2
# Processed by: cddbd v1.5.1PL0 Copyright (c) Steve Scherf et al.
# Submitted via: Grip 3.2.0
# 
DISCID=9009cc0b
DTITLE=Maggie Bell - Queen Of The Night
DYEAR=1974
DGENRE=Blues
TTITLE0=Caddo Queen
TTITLE1=A Woman Left Lonely
TTITLE2=Souvenirs
TTITLE3=After Midnight
TTITLE4=Queen Of The Night
TTITLE5=Oh My My
TTITLE6=As The Years Go Passing By
TTITLE7=Yesterday's Music
TTITLE8=We Had It All
TTITLE9=The Other Side
TTITLE10=Trade Winds
EXTD=
EXTT0=
EXTT1=
EXTT2=
EXTT3=
EXTT4=
EXTT5=
EXTT6=
EXTT7=
EXTT8=
EXTT9=
EXTT10=
PLAYORDER=
